<?xml version="1.0" standalone="no"?>
<!DOCTYPE svg PUBLIC "-//W3C//DTD SVG 20010904//EN"
 "http://www.w3.org/TR/2001/REC-SVG-20010904/DTD/svg10.dtd">
<svg version="1.0" xmlns="http://www.w3.org/2000/svg"
 width="300.000000pt" height="300.000000pt" viewBox="0 0 300.000000 300.000000"
 preserveAspectRatio="xMidYMid meet">
<metadata>
Created by potrace 1.14, written by Peter Selinger 2001-2017
</metadata>
<g transform="translate(0.000000,300.000000) scale(0.100000,-0.100000)"
fill="#000000" stroke="none">
<path d="M138 2956 c-54 -32 -75 -54 -108 -112 l-30 -52 0 -1141 c0 -895 3
-1140 13 -1137 6 1 9 1 4 -1 -12 -7 -8 -41 6 -47 8 -3 6 -9 -7 -20 -23 -18 -5
-22 26 -5 14 8 18 17 14 34 -3 13 -2 26 3 29 4 3 11 19 14 35 4 17 15 39 26
50 l21 21 -22 11 c-19 10 -20 9 -14 -7 6 -16 5 -17 -6 -6 -20 20 -21 1077 -1
1094 8 6 10 14 5 17 -5 3 -12 23 -16 44 -6 29 -4 37 8 37 9 0 13 6 10 14 -3 9
3 20 15 28 12 7 21 21 21 30 0 10 4 18 9 18 13 0 71 56 71 68 0 6 -9 13 -19
17 -11 3 -22 14 -24 23 -3 12 -5 11 -6 -5 -1 -15 -7 -23 -18 -23 -11 0 -14 -3
-7 -8 14 -9 24 -38 17 -46 -3 -3 -17 6 -30 20 -19 20 -21 29 -12 40 6 7 9 20
6 28 -4 10 5 20 25 30 28 15 30 14 35 -4 6 -24 33 -27 33 -4 0 11 6 15 20 11
18 -5 18 -3 -4 30 -24 34 -76 71 -76 52 0 -5 5 -9 10 -9 6 0 10 -4 10 -10 0
-5 -7 -7 -15 -4 -8 4 -17 -1 -21 -10 -12 -32 -23 -15 -18 29 4 44 3 45 -17 34
-18 -9 -20 -8 -17 8 2 10 10 18 17 18 8 0 16 6 19 14 3 10 -1 12 -17 8 -25 -6
-27 9 -4 35 15 17 15 19 -2 38 -16 18 -18 42 -17 254 1 252 2 258 58 325 15
18 44 41 65 51 37 20 67 20 1309 20 1245 0 1272 0 1309 -20 50 -25 98 -84 112
-135 8 -27 12 -379 15 -1090 2 -577 3 -1094 4 -1148 0 -63 4 -96 10 -92 6 3
10 16 11 28 0 12 3 16 6 10 2 -7 9 -13 14 -13 6 0 8 4 4 9 -3 5 -1 12 5 16 7
4 10 387 10 1153 l0 1147 -29 55 c-22 41 -44 65 -91 98 l-61 42 -1322 -1
-1322 -1 -37 -22z m-61 -858 c-3 -8 -6 -5 -6 6 -1 11 2 17 5 13 3 -3 4 -12 1
-19z m-1 -45 c-10 -10 -19 5 -10 18 6 11 8 11 12 0 2 -7 1 -15 -2 -18z m0 -50
c-11 -11 -17 4 -9 23 7 18 8 18 11 1 2 -10 1 -21 -2 -24z"/>
<path d="M210 2798 c0 -13 7 -17 24 -16 16 2 22 7 18 16 -4 11 -6 11 -13 0 -7
-11 -11 -10 -19 2 -8 13 -10 13 -10 -2z"/>
<path d="M130 2759 c0 -5 5 -7 10 -4 6 3 10 8 10 11 0 2 -4 4 -10 4 -5 0 -10
-5 -10 -11z"/>
<path d="M128 2713 c10 -4 10 -8 1 -19 -9 -11 -8 -14 4 -14 22 0 32 20 16 31
-8 5 -18 8 -24 8 -5 0 -4 -3 3 -6z"/>
<path d="M146 2548 c3 -13 14 -32 23 -43 8 -11 17 -21 18 -23 0 -2 13 4 27 13
28 19 25 40 -5 32 -12 -3 -24 4 -34 19 -20 31 -39 32 -29 2z"/>
<path d="M230 2394 c0 -8 5 -12 10 -9 6 4 8 11 5 16 -9 14 -15 11 -15 -7z"/>
<path d="M785 2372 c-26 -9 -65 -43 -65 -58 0 -6 -6 -16 -13 -23 -9 -7 -13
-29 -11 -61 l2 -51 -38 2 c-34 3 -44 -2 -81 -39 -23 -24 -39 -46 -35 -49 3 -3
1 -12 -6 -20 -6 -8 -10 -43 -9 -87 2 -77 -11 -105 -45 -92 -29 11 -41 -17 -46
-112 -3 -69 -1 -93 9 -96 16 -7 19 -182 3 -188 -7 -2 -11 -65 -12 -172 -1
-124 -5 -169 -14 -173 -7 -2 -10 -10 -8 -18 3 -7 -6 -22 -20 -33 -14 -11 -26
-27 -26 -35 0 -9 -4 -19 -10 -22 -5 -3 -10 -15 -10 -26 0 -10 -4 -19 -10 -19
-5 0 -7 -6 -4 -14 7 -17 -32 -59 -46 -51 -6 4 -10 2 -10 -4 0 -5 4 -11 9 -13
5 -1 12 -36 16 -75 6 -59 4 -73 -7 -73 -11 0 -13 -16 -12 -69 1 -38 5 -75 9
-81 5 -7 29 -10 69 -8 58 4 61 5 67 33 4 17 7 26 8 21 0 -5 8 -3 16 4 17 14
10 34 -10 26 -9 -3 -14 9 -17 42 -4 46 9 92 25 92 15 0 38 29 32 40 -3 5 6 27
20 49 18 30 25 56 26 96 1 43 6 58 20 66 11 5 19 15 19 21 0 7 9 22 21 34 11
12 21 32 21 45 1 13 7 31 14 39 6 8 15 26 19 39 4 14 15 37 24 52 l17 28 42
-35 c22 -20 53 -56 68 -81 32 -55 59 -83 80 -83 14 0 15 -7 9 -42 -11 -64 -5
-189 11 -220 16 -31 19 -104 4 -113 -15 -9 -12 -74 3 -90 14 -13 97 -21 203
-17 44 1 64 6 68 17 7 19 -20 45 -56 52 -16 3 -37 17 -46 32 -9 14 -20 29 -25
32 -5 4 -6 103 -2 220 6 186 5 218 -9 244 -9 17 -16 38 -16 48 0 9 -4 17 -8
17 -8 0 -36 60 -33 73 1 4 -12 21 -29 37 -16 16 -30 36 -30 44 0 8 -6 19 -12
23 -12 8 -38 47 -38 58 0 3 13 5 28 5 47 0 62 27 62 108 0 47 4 72 11 72 8 0
8 5 -1 15 -18 22 9 29 81 21 51 -5 62 -3 76 14 10 11 23 20 30 20 7 0 13 9 13
21 0 11 6 27 14 35 8 7 12 23 9 34 -3 11 -1 20 5 20 6 0 13 22 17 49 12 89 28
94 310 110 94 5 110 9 113 24 3 15 -6 17 -80 17 -92 0 -108 8 -108 52 0 18 -5
28 -15 28 -9 0 -15 -9 -15 -25 l0 -25 -185 0 -185 0 -16 25 c-18 28 -44 33
-44 10 0 -8 -5 -15 -11 -15 -8 0 -9 17 -5 54 5 34 3 56 -3 61 -6 3 -11 13 -11
21 0 16 -36 55 -44 47 -2 -3 -15 2 -28 11 -23 16 -66 19 -103 8z m165 -212 c0
-5 -2 -10 -4 -10 -3 0 -8 5 -11 10 -3 6 -1 10 4 10 6 0 11 -4 11 -10z"/>
<path d="M134 2204 c3 -9 6 -27 6 -40 0 -14 4 -23 9 -20 15 10 9 76 -7 76 -9
0 -12 -6 -8 -16z"/>
<path d="M345 2040 c4 -6 11 -8 16 -5 14 9 11 15 -7 15 -8 0 -12 -5 -9 -10z"/>
<path d="M233 1913 c-15 -6 -17 -33 -3 -33 6 0 10 6 10 14 0 8 6 17 13 19 6 3
8 5 2 5 -5 0 -16 -2 -22 -5z"/>
<path d="M185 1848 c-35 -19 -64 -50 -59 -62 3 -7 -7 -18 -21 -26 -23 -12 -34
-30 -18 -30 4 0 26 10 51 21 34 17 43 26 39 41 -4 14 1 22 19 28 15 6 22 15
18 25 -3 8 -7 15 -8 15 0 0 -10 -6 -21 -12z"/>
<path d="M230 1770 c0 -5 5 -10 10 -10 6 0 10 5 10 10 0 6 -4 10 -10 10 -5 0
-10 -4 -10 -10z"/>
<path d="M1716 1734 c-12 -12 -16 -37 -16 -111 0 -122 1 -122 136 -123 106 0
134 10 120 45 -4 12 -24 15 -96 15 l-90 0 0 65 0 65 95 0 c81 0 95 2 95 16 0
33 -32 43 -132 44 -75 0 -100 -4 -112 -16z"/>
<path d="M2087 1732 c-11 -12 -17 -36 -17 -65 0 -61 25 -79 107 -77 93 3 103
1 103 -15 0 -12 -18 -15 -105 -15 -84 0 -105 -3 -105 -14 0 -36 29 -46 131
-46 129 0 139 5 139 75 0 73 -17 85 -127 85 -67 0 -83 3 -83 15 0 12 18 15
105 15 58 0 105 4 105 8 0 5 -10 18 -23 30 -21 19 -35 22 -119 22 -79 0 -98
-3 -111 -18z"/>
<path d="M150 1720 c0 -5 5 -10 10 -10 6 0 10 5 10 10 0 6 -4 10 -10 10 -5 0
-10 -4 -10 -10z"/>
<path d="M200 1709 c0 -5 5 -7 10 -4 6 3 10 8 10 11 0 2 -4 4 -10 4 -5 0 -10
-5 -10 -11z"/>
<path d="M112 1698 c5 -15 28 -18 29 -3 0 6 -7 12 -17 13 -10 3 -15 -1 -12
-10z"/>
<path d="M112 1600 c-8 -13 -8 -20 -2 -20 6 0 13 7 17 15 9 24 -1 27 -15 5z"/>
<path d="M171 1604 c0 -11 3 -14 6 -6 3 7 2 16 -1 19 -3 4 -6 -2 -5 -13z"/>
<path d="M280 1601 c0 -5 3 -17 6 -25 5 -13 9 -14 20 -5 11 9 11 15 3 25 -13
16 -29 18 -29 5z"/>
<path d="M188 1563 c7 -3 16 -2 19 1 4 3 -2 6 -13 5 -11 0 -14 -3 -6 -6z"/>
<path d="M163 1500 c2 -45 22 -53 52 -20 10 11 22 17 26 14 5 -3 6 2 3 10 -4
10 -18 16 -35 16 -16 0 -29 5 -29 10 0 6 -4 10 -10 10 -5 0 -9 -18 -7 -40z"/>
<path d="M97 1489 c-20 -36 -21 -34 16 -43 25 -6 27 -5 18 12 -7 13 -7 22 1
30 10 10 3 32 -10 32 -4 0 -15 -14 -25 -31z"/>
<path d="M1347 1405 l-47 -45 0 -212 0 -213 44 -42 44 -43 253 3 254 2 25 25
c42 41 50 73 50 199 l0 119 -27 5 c-54 9 -416 2 -420 -9 -2 -6 13 -32 33 -58
l36 -47 111 2 112 3 3 -57 3 -57 -196 0 -195 0 0 158 c0 110 4 162 12 170 9 9
83 12 270 12 251 0 258 1 258 20 0 11 -3 20 -8 20 -4 0 -12 10 -17 22 -6 12
-19 26 -30 32 -10 6 -25 17 -33 24 -10 9 -75 12 -251 12 l-237 0 -47 -45z"/>
<path d="M2111 1409 c-22 -23 -41 -44 -41 -48 -6 -102 -4 -403 2 -407 4 -3 8
-13 8 -23 0 -9 15 -31 33 -49 l32 -31 247 2 c246 2 246 2 272 26 14 14 26 33
26 43 0 10 5 18 10 18 13 0 14 394 1 418 -5 9 -12 24 -14 33 -3 9 -25 26 -49
38 -41 19 -60 21 -265 21 l-221 0 -41 -41z m459 -259 l0 -170 -180 0 -180 0 1
163 c1 89 3 165 6 170 2 4 83 7 179 7 l174 0 0 -170z"/>
<path d="M160 1432 c0 -5 -3 -18 -6 -26 -4 -12 -2 -15 9 -10 8 3 14 12 13 19
-3 18 -16 32 -16 17z"/>
<path d="M200 1415 c0 -8 4 -15 9 -15 5 0 13 -9 16 -20 4 -11 11 -18 16 -14 5
3 7 15 3 27 -11 34 -44 51 -44 22z"/>
<path d="M270 1074 c0 -8 5 -12 10 -9 6 4 8 11 5 16 -9 14 -15 11 -15 -7z"/>
<path d="M241 1064 c0 -11 3 -14 6 -6 3 7 2 16 -1 19 -3 4 -6 -2 -5 -13z"/>
<path d="M204 1022 c-4 -13 -14 -22 -26 -22 -11 0 -18 -5 -16 -12 6 -17 38
-23 38 -7 0 6 8 18 18 25 14 10 15 15 4 26 -10 10 -14 9 -18 -10z"/>
<path d="M200 950 c0 -5 5 -10 10 -10 6 0 10 5 10 10 0 6 -4 10 -10 10 -5 0
-10 -4 -10 -10z"/>
<path d="M100 940 c0 -5 5 -10 11 -10 5 0 7 5 4 10 -3 6 -8 10 -11 10 -2 0 -4
-4 -4 -10z"/>
<path d="M119 913 c-17 -4 -54 -61 -45 -70 3 -4 6 -1 6 6 0 7 5 9 13 4 15 -10
40 -6 74 12 15 8 30 12 35 9 4 -3 8 2 8 10 0 8 8 20 18 25 9 6 11 11 5 11 -7
0 -22 -9 -34 -21 -23 -23 -39 -18 -19 6 11 13 8 15 -16 14 -16 -1 -36 -3 -45
-6z m31 -23 c0 -13 -28 -25 -38 -16 -3 4 0 11 8 16 20 13 30 12 30 0z"/>
<path d="M540 874 c8 -4 24 -16 34 -27 14 -14 21 -17 24 -8 6 18 -8 29 -43 35
-16 4 -23 3 -15 0z"/>
<path d="M116 814 c-18 -18 -21 -40 -6 -49 6 -3 10 3 10 14 0 12 7 21 15 21
17 0 20 16 6 25 -5 3 -17 -2 -25 -11z"/>
<path d="M140 740 c-10 -6 -11 -13 -5 -19 13 -13 36 1 27 16 -5 8 -13 9 -22 3z"/>
<path d="M141 653 c-27 -26 -21 -45 6 -21 10 9 25 13 33 10 13 -5 13 -3 0 14
-8 10 -14 19 -15 20 0 0 -11 -10 -24 -23z"/>
<path d="M210 670 c0 -4 9 -10 20 -13 21 -5 29 -51 10 -62 -5 -3 -10 -2 -10 4
0 6 -6 9 -12 7 -7 -1 -10 -1 -5 1 11 7 9 33 -3 33 -19 0 -22 -30 -7 -54 19
-28 10 -44 -10 -18 -12 15 -13 13 -11 -18 2 -24 8 -36 21 -38 10 -2 17 3 17
12 0 9 5 16 10 16 16 0 12 -15 -10 -40 -23 -26 -25 -37 -8 -42 7 -3 9 -12 4
-24 -7 -18 -8 -18 -17 -1 -6 9 -20 17 -32 17 -18 0 -19 -2 -7 -11 12 -8 9 -9
-13 -5 -15 4 -37 1 -48 -5 -17 -9 -23 -8 -30 2 -4 7 -11 10 -15 6 -4 -3 -1
-13 6 -22 10 -12 10 -18 0 -30 -15 -18 -3 -62 13 -46 15 15 27 14 27 -4 0 -8
-9 -15 -20 -15 -17 0 -19 -6 -16 -48 5 -64 37 -132 82 -172 28 -24 39 -29 45
-19 6 11 9 10 14 -3 3 -9 21 -19 38 -22 18 -4 182 -7 366 -6 250 0 338 3 350
13 12 10 13 9 7 -1 -6 -10 13 -13 94 -11 73 1 103 5 107 14 2 8 11 16 19 19
12 4 14 1 9 -14 -6 -19 -1 -20 112 -21 234 -2 568 3 573 7 2 3 0 8 -6 12 -19
12 -24 68 -9 88 21 27 19 30 -17 31 -64 2 -98 14 -98 35 0 15 -5 18 -20 13
-14 -5 -20 -2 -20 9 0 9 -5 16 -11 16 -6 0 -8 9 -4 20 4 11 2 20 -4 20 -6 0
-11 -5 -11 -11 0 -6 -7 -8 -16 -5 -8 3 -12 2 -9 -4 8 -13 -11 -13 -36 0 -15 8
-27 7 -49 -7 -35 -20 -40 -38 -8 -30 12 3 30 2 40 -4 15 -8 16 -14 7 -30 -6
-11 -8 -27 -5 -35 9 -23 -11 -16 -32 11 -11 14 -30 25 -42 25 -15 0 -20 5 -17
14 3 7 1 18 -5 24 -16 16 22 59 59 67 27 5 32 10 31 31 -2 18 -7 23 -18 18 -8
-3 -23 -7 -34 -10 -10 -2 -21 -6 -24 -8 -2 -3 -18 4 -35 16 -27 19 -30 20 -24
4 5 -12 3 -16 -5 -14 -7 3 -17 -4 -23 -15 -5 -11 -17 -22 -25 -24 -11 -3 -11
-1 3 10 20 17 23 50 5 64 -14 11 -64 10 -75 0 -12 -13 -35 -7 -30 7 3 8 -2 16
-14 19 -11 3 -17 11 -14 19 4 9 -2 14 -15 14 -13 0 -23 -9 -26 -23 -5 -18 -11
-21 -35 -16 -18 3 -29 1 -29 -6 0 -6 5 -11 10 -11 6 0 10 -4 10 -10 0 -5 -13
-10 -28 -10 -15 0 -33 -5 -40 -12 -7 -7 -12 -8 -12 -4 0 4 10 16 23 27 18 15
19 20 8 28 -7 5 -10 14 -7 20 10 15 63 14 70 -1 3 -7 3 -2 0 12 -4 14 -11 28
-16 31 -6 4 -7 17 -4 30 3 13 3 18 0 12 -3 -7 -23 -13 -45 -13 -28 0 -39 -4
-39 -15 0 -8 -4 -15 -10 -15 -5 0 -10 5 -10 10 0 20 -28 10 -34 -12 -3 -13 -9
-19 -13 -13 -13 17 -53 17 -53 0 0 -9 -10 -15 -25 -15 -14 0 -25 5 -25 10 0 6
0 13 0 18 0 4 5 7 12 7 6 0 13 6 16 13 2 7 -5 12 -17 12 -11 0 -23 5 -27 11
-11 18 -24 -12 -13 -32 10 -19 -5 -37 -16 -19 -4 6 -15 8 -25 5 -14 -4 -16 -1
-12 20 3 18 0 25 -11 25 -9 0 -20 7 -25 16 -5 9 -15 14 -21 10 -6 -4 -9 -12
-5 -17 5 -9 -23 -6 -63 7 -7 2 -13 -4 -13 -12 0 -10 -6 -13 -17 -10 -31 10
-125 10 -131 0 -6 -8 -24 -10 -59 -5 -7 0 -13 7 -13 15 0 8 -15 19 -32 26 -18
7 -27 14 -20 17 6 2 12 14 12 25 0 20 -1 20 -20 3 -10 -9 -19 -20 -18 -24 3
-27 -4 -33 -32 -27 -22 4 -30 2 -30 -9 0 -9 6 -12 15 -9 22 9 18 -9 -5 -24
-17 -10 -20 -10 -20 3 0 19 -7 19 -26 0 -18 -17 -34 -20 -34 -5 0 6 -4 10 -10
10 -20 0 -10 -27 15 -40 18 -10 22 -16 13 -21 -21 -13 -50 22 -44 53 3 15 -1
39 -9 54 -16 31 -5 54 24 54 13 0 14 2 2 9 -8 5 -14 22 -14 38 0 24 -5 28 -29
29 -15 1 -28 -2 -28 -6z m267 -171 c16 -14 16 -21 0 -43 -10 -13 -20 -16 -35
-12 -25 8 -30 26 -7 26 8 0 15 7 15 16 0 12 -6 15 -25 10 -19 -5 -25 -2 -25
10 0 13 6 15 32 10 17 -3 37 -11 45 -17z m123 -29 c0 -11 -4 -20 -10 -20 -5 0
-10 9 -10 20 0 11 5 20 10 20 6 0 10 -9 10 -20z m-205 -19 c-3 -6 -11 -11 -17
-11 -6 0 -6 6 2 15 14 17 26 13 15 -4z m165 12 c0 -13 -14 -27 -38 -41 -28
-16 -39 -11 -18 7 8 7 12 19 9 27 -4 10 2 14 21 14 14 0 26 -3 26 -7z m360
-67 c-13 -13 -35 7 -25 24 5 8 11 8 21 -1 10 -8 12 -15 4 -23z m178 22 c-7
-19 -38 -22 -38 -4 0 10 9 16 21 16 12 0 19 -5 17 -12z m-823 -8 c3 -5 -1 -10
-10 -10 -9 0 -13 5 -10 10 3 6 8 10 10 10 2 0 7 -4 10 -10z m742 -10 c3 -11 9
-20 14 -20 5 0 16 -14 24 -31 16 -31 16 -31 -7 -24 -31 10 -33 12 -19 29 10
12 9 14 -8 9 -15 -4 -21 -1 -21 10 0 8 -3 22 -6 31 -4 9 -1 16 6 16 6 0 14 -9
17 -20z m253 8 c0 -7 -5 -20 -10 -28 -8 -12 -10 -9 -10 13 0 15 5 27 10 27 6
0 10 -6 10 -12z m-800 -38 c8 -5 11 -10 5 -10 -5 0 -17 5 -25 10 -8 5 -10 10
-5 10 6 0 17 -5 25 -10z m-90 -10 c0 -5 -2 -10 -4 -10 -3 0 -8 5 -11 10 -3 6
-1 10 4 10 6 0 11 -4 11 -10z m715 0 c-3 -5 -11 -10 -16 -10 -6 0 -7 5 -4 10
3 6 11 10 16 10 6 0 7 -4 4 -10z m-852 -15 c-3 -9 -8 -14 -10 -11 -3 3 -2 9 2
15 9 16 15 13 8 -4z m192 -25 c-3 -5 -10 -10 -16 -10 -5 0 -9 5 -9 10 0 6 7
10 16 10 8 0 12 -4 9 -10z m515 -10 c0 -5 -4 -10 -10 -10 -5 0 -10 5 -10 10 0
6 5 10 10 10 6 0 10 -4 10 -10z m430 -10 c0 -5 -4 -10 -10 -10 -5 0 -10 5 -10
10 0 6 5 10 10 10 6 0 10 -4 10 -10z m-1210 -14 c0 -11 -19 -15 -25 -6 -3 5 1
10 9 10 9 0 16 -2 16 -4z m895 -6 c17 -7 17 -9 3 -9 -10 -1 -18 -7 -18 -15 0
-8 -13 -16 -30 -18 -34 -5 -37 3 -13 32 19 22 27 23 58 10z m-930 -31 c4 -6 5
-12 2 -15 -7 -7 -37 7 -37 17 0 13 27 11 35 -2z m315 -14 c0 -8 -7 -15 -15
-15 -16 0 -20 12 -8 23 11 12 23 8 23 -8z m1023 -9 c-17 -23 -77 -56 -101 -56
-22 0 -12 20 13 26 14 3 25 10 25 15 0 8 54 36 73 38 4 1 0 -10 -10 -23z
m-563 -11 c0 -16 -6 -25 -15 -25 -8 0 -15 5 -15 11 0 6 -7 9 -15 5 -21 -8 -19
11 3 23 28 17 42 12 42 -14z m-553 -2 c11 -10 23 -29 28 -43 6 -22 5 -23 -6
-9 -8 9 -26 19 -41 23 -20 5 -25 10 -21 26 7 25 14 25 40 3z m1318 -3 c3 -5
-1 -10 -9 -10 -9 0 -16 5 -16 10 0 6 4 10 9 10 6 0 13 -4 16 -10z m-350 -75
c-17 -13 -42 -27 -57 -30 -15 -4 -30 -11 -33 -16 -8 -11 -25 -12 -25 -1 0 5
10 14 23 21 12 6 40 24 62 40 49 36 76 24 30 -14z m-395 25 c0 -5 -2 -10 -4
-10 -3 0 -8 5 -11 10 -3 6 -1 10 4 10 6 0 11 -4 11 -10z m910 6 c0 -2 -7 -9
-15 -16 -12 -10 -15 -10 -15 4 0 9 7 16 15 16 8 0 15 -2 15 -4z m-80 -36 c0
-5 -7 -10 -15 -10 -8 0 -15 5 -15 10 0 6 7 10 15 10 8 0 15 -4 15 -10z m-1575
-10 c-3 -5 -13 -10 -21 -10 -8 0 -12 5 -9 10 3 6 13 10 21 10 8 0 12 -4 9 -10z
m79 -25 c-5 -13 -34 -30 -34 -19 0 3 5 14 11 25 11 22 31 17 23 -6z m1496 -15
c0 -5 -9 -10 -21 -10 -11 0 -17 5 -14 10 3 6 13 10 21 10 8 0 14 -4 14 -10z"/>
<path d="M450 638 c0 -4 4 -8 9 -8 6 0 12 4 15 8 3 5 -1 9 -9 9 -8 0 -15 -4
-15 -9z"/>
<path d="M950 620 c0 -5 5 -10 10 -10 6 0 10 5 10 10 0 6 -4 10 -10 10 -5 0
-10 -4 -10 -10z"/>
<path d="M130 595 c-21 -25 -1 -31 23 -7 17 18 18 22 5 22 -8 0 -21 -7 -28
-15z"/>
<path d="M1215 560 c-3 -5 -1 -10 4 -10 6 0 11 5 11 10 0 6 -2 10 -4 10 -3 0
-8 -4 -11 -10z"/>
<path d="M90 550 c0 -5 4 -10 9 -10 6 0 13 5 16 10 3 6 -1 10 -9 10 -9 0 -16
-4 -16 -10z"/>
<path d="M110 515 c0 -25 14 -33 25 -15 3 5 13 6 22 3 11 -4 14 -2 11 8 -3 8
-12 13 -22 11 -9 -2 -16 2 -16 8 0 5 -4 10 -10 10 -5 0 -10 -11 -10 -25z"/>
<path d="M290 525 c0 -8 5 -15 10 -15 6 0 10 7 10 15 0 8 -4 15 -10 15 -5 0
-10 -7 -10 -15z"/>
<path d="M1012 529 c2 -6 8 -10 13 -10 5 0 11 4 13 10 2 6 -4 11 -13 11 -9 0
-15 -5 -13 -11z"/>
<path d="M960 519 c0 -5 5 -7 10 -4 6 3 10 8 10 11 0 2 -4 4 -10 4 -5 0 -10
-5 -10 -11z"/>
<path d="M1410 510 c0 -5 5 -10 10 -10 6 0 10 5 10 10 0 6 -4 10 -10 10 -5 0
-10 -4 -10 -10z"/>
<path d="M74 499 c-3 -6 -1 -16 5 -22 8 -8 11 -5 11 11 0 24 -5 28 -16 11z"/>
<path d="M1295 460 c3 -5 16 -10 28 -9 21 0 21 1 2 9 -28 12 -37 12 -30 0z"/>
<path d="M2636 403 c-6 -14 -5 -15 5 -6 7 7 10 15 7 18 -3 3 -9 -2 -12 -12z"/>
<path d="M2810 356 c0 -17 14 -29 23 -20 8 8 -3 34 -14 34 -5 0 -9 -6 -9 -14z"/>
<path d="M1640 309 c0 -5 5 -7 10 -4 6 3 10 8 10 11 0 2 -4 4 -10 4 -5 0 -10
-5 -10 -11z"/>
<path d="M1730 305 c-7 -9 -10 -18 -7 -21 10 -11 37 5 37 21 0 19 -14 19 -30
0z"/>
<path d="M1840 300 c0 -13 33 -21 42 -12 6 6 -1 11 -16 14 -14 3 -26 2 -26 -2z"/>
<path d="M2709 283 c-1 -5 -1 -12 0 -17 1 -5 -10 -21 -25 -37 -26 -27 -26 -28
-8 -53 11 -14 25 -26 32 -26 16 0 15 -6 -4 -36 -18 -27 -10 -48 9 -24 7 8 28
17 47 19 45 4 47 7 15 24 -22 11 -28 22 -31 59 -2 34 1 48 12 52 12 5 12 8 -3
26 -17 20 -42 27 -44 13z"/>
<path d="M2570 270 c0 -13 28 -25 38 -16 3 4 0 11 -8 16 -20 13 -30 12 -30 0z"/>
<path d="M1998 263 c-29 -7 -20 -29 12 -31 24 -2 30 2 30 18 0 20 -8 22 -42
13z"/>
<path d="M2488 263 c7 -3 16 -2 19 1 4 3 -2 6 -13 5 -11 0 -14 -3 -6 -6z"/>
<path d="M2562 239 c2 -7 10 -15 17 -17 8 -3 12 1 9 9 -2 7 -10 15 -17 17 -8
3 -12 -1 -9 -9z"/>
<path d="M2860 230 c0 -5 5 -10 10 -10 6 0 10 5 10 10 0 6 -4 10 -10 10 -5 0
-10 -4 -10 -10z"/>
<path d="M2121 169 c-1 -24 -8 -51 -16 -59 -18 -20 -13 -54 8 -58 9 -2 24 6
34 17 20 24 48 28 39 6 -6 -17 27 -29 65 -23 31 4 32 34 1 31 -16 -2 -25 4
-32 22 -5 14 -16 25 -25 25 -9 0 -14 8 -12 23 1 14 -3 21 -11 19 -7 -1 -21 7
-31 19 -17 21 -17 21 -20 -22z"/>
<path d="M2560 200 c0 -5 5 -10 10 -10 6 0 10 -5 10 -11 0 -14 30 -38 46 -39
7 0 14 13 16 29 4 26 2 29 -14 20 -14 -7 -23 -6 -34 6 -18 17 -34 20 -34 5z"/>
<path d="M2454 185 c-4 -8 -4 -22 -1 -30 8 -20 -11 -29 -29 -14 -9 7 -25 14
-37 16 -11 2 -26 8 -33 14 -9 7 -20 6 -37 -6 -33 -21 -39 -49 -15 -64 10 -6
17 -17 16 -24 -3 -12 3 -17 21 -17 6 0 11 15 13 32 3 37 23 45 53 23 16 -13
18 -19 7 -35 -6 -11 -12 -22 -12 -24 0 -7 221 -3 225 4 3 4 17 5 31 2 19 -3
25 -1 20 7 -4 6 -12 9 -17 5 -6 -3 -16 2 -24 12 -10 14 -10 21 -2 26 7 5 2 8
-13 8 -14 0 -38 11 -54 25 -16 14 -39 25 -51 25 -13 0 -25 7 -29 15 -3 8 -10
15 -16 15 -6 0 -13 -7 -16 -15z m146 -105 c0 -5 -7 -10 -16 -10 -8 0 -12 5 -9
10 3 6 10 10 16 10 5 0 9 -4 9 -10z"/>
<path d="M1955 161 c-10 -17 11 -21 31 -6 18 14 18 14 -3 15 -12 0 -24 -4 -28
-9z"/>
<path d="M2846 123 c-6 -14 -5 -15 5 -6 7 7 10 15 7 18 -3 3 -9 -2 -12 -12z"/>
<path d="M1944 105 c-18 -15 -18 -15 5 -13 14 2 26 9 29 16 5 17 -10 15 -34
-3z"/>
<path d="M1910 85 c6 -8 10 -18 7 -22 -3 -4 11 -9 30 -11 24 -1 33 2 30 10 -2
7 -14 12 -25 10 -13 -2 -25 3 -28 12 -3 9 -11 16 -16 16 -6 0 -5 -6 2 -15z"/>
<path d="M2790 91 c0 -5 5 -13 10 -16 6 -3 10 -2 10 4 0 5 -4 13 -10 16 -5 3
-10 2 -10 -4z"/>
<path d="M2025 70 c3 -5 13 -10 21 -10 8 0 14 5 14 10 0 6 -9 10 -21 10 -11 0
-17 -4 -14 -10z"/>
</g>
</svg>
